<mxfile host="Electron" agent="Mozilla/5.0 (X11; Linux x86_64) AppleWebKit/537.36 (KHTML, like Gecko) draw.io/26.0.4 Chrome/128.0.6613.186 Electron/32.2.5 Safari/537.36" version="26.0.4">
  <diagram name="Page-1" id="JCY_7pM3ajEWTNnSOldf">
    <mxGraphModel dx="1114" dy="1198" grid="1" gridSize="10" guides="1" tooltips="1" connect="1" arrows="1" fold="1" page="1" pageScale="1" pageWidth="850" pageHeight="1100" math="0" shadow="0">
      <root>
        <mxCell id="0" />
        <mxCell id="1" parent="0" />
        <mxCell id="Pj8K4zCSjB6efHpe8W9U-7" style="edgeStyle=orthogonalEdgeStyle;rounded=0;orthogonalLoop=1;jettySize=auto;html=1;" edge="1" parent="1" source="Pj8K4zCSjB6efHpe8W9U-1" target="Pj8K4zCSjB6efHpe8W9U-2">
          <mxGeometry relative="1" as="geometry" />
        </mxCell>
        <mxCell id="Pj8K4zCSjB6efHpe8W9U-9" style="edgeStyle=orthogonalEdgeStyle;rounded=0;orthogonalLoop=1;jettySize=auto;html=1;" edge="1" parent="1" source="Pj8K4zCSjB6efHpe8W9U-1" target="Pj8K4zCSjB6efHpe8W9U-3">
          <mxGeometry relative="1" as="geometry" />
        </mxCell>
        <mxCell id="Pj8K4zCSjB6efHpe8W9U-10" style="edgeStyle=orthogonalEdgeStyle;rounded=0;orthogonalLoop=1;jettySize=auto;html=1;exitX=0.75;exitY=1;exitDx=0;exitDy=0;" edge="1" parent="1" source="Pj8K4zCSjB6efHpe8W9U-1" target="Pj8K4zCSjB6efHpe8W9U-4">
          <mxGeometry relative="1" as="geometry" />
        </mxCell>
        <mxCell id="Pj8K4zCSjB6efHpe8W9U-1" value="open" style="rounded=0;whiteSpace=wrap;html=1;fillColor=#d5e8d4;strokeColor=#82b366;" vertex="1" parent="1">
          <mxGeometry x="310" y="465" width="120" height="40" as="geometry" />
        </mxCell>
        <mxCell id="Pj8K4zCSjB6efHpe8W9U-2" value="failed" style="rounded=0;whiteSpace=wrap;html=1;fillColor=#f8cecc;strokeColor=#b85450;" vertex="1" parent="1">
          <mxGeometry x="520" y="465" width="120" height="40" as="geometry" />
        </mxCell>
        <mxCell id="Pj8K4zCSjB6efHpe8W9U-11" style="edgeStyle=orthogonalEdgeStyle;rounded=0;orthogonalLoop=1;jettySize=auto;html=1;" edge="1" parent="1" source="Pj8K4zCSjB6efHpe8W9U-3" target="Pj8K4zCSjB6efHpe8W9U-4">
          <mxGeometry relative="1" as="geometry" />
        </mxCell>
        <mxCell id="Pj8K4zCSjB6efHpe8W9U-17" style="edgeStyle=orthogonalEdgeStyle;rounded=0;orthogonalLoop=1;jettySize=auto;html=1;exitX=0;exitY=0.5;exitDx=0;exitDy=0;entryX=0;entryY=0.75;entryDx=0;entryDy=0;" edge="1" parent="1" source="Pj8K4zCSjB6efHpe8W9U-3" target="Pj8K4zCSjB6efHpe8W9U-1">
          <mxGeometry relative="1" as="geometry" />
        </mxCell>
        <mxCell id="Pj8K4zCSjB6efHpe8W9U-20" value="&amp;nbsp;one-time&amp;nbsp;" style="edgeStyle=orthogonalEdgeStyle;rounded=0;orthogonalLoop=1;jettySize=auto;html=1;exitX=0.75;exitY=1;exitDx=0;exitDy=0;" edge="1" parent="1" source="Pj8K4zCSjB6efHpe8W9U-3" target="Pj8K4zCSjB6efHpe8W9U-6">
          <mxGeometry relative="1" as="geometry" />
        </mxCell>
        <mxCell id="Pj8K4zCSjB6efHpe8W9U-24" value="persistent" style="edgeStyle=orthogonalEdgeStyle;rounded=0;orthogonalLoop=1;jettySize=auto;html=1;exitX=0.25;exitY=1;exitDx=0;exitDy=0;entryX=0.25;entryY=0;entryDx=0;entryDy=0;" edge="1" parent="1" source="Pj8K4zCSjB6efHpe8W9U-3" target="Pj8K4zCSjB6efHpe8W9U-5">
          <mxGeometry relative="1" as="geometry" />
        </mxCell>
        <mxCell id="Pj8K4zCSjB6efHpe8W9U-3" value="active" style="rounded=0;whiteSpace=wrap;html=1;fillColor=#d5e8d4;strokeColor=#82b366;" vertex="1" parent="1">
          <mxGeometry x="310" y="605" width="120" height="40" as="geometry" />
        </mxCell>
        <mxCell id="Pj8K4zCSjB6efHpe8W9U-4" value="c&lt;span style=&quot;background-color: transparent; color: light-dark(rgb(0, 0, 0), rgb(255, 255, 255));&quot;&gt;ancelled&lt;/span&gt;" style="rounded=0;whiteSpace=wrap;html=1;fillColor=#f8cecc;strokeColor=#b85450;" vertex="1" parent="1">
          <mxGeometry x="530" y="605" width="120" height="40" as="geometry" />
        </mxCell>
        <mxCell id="Pj8K4zCSjB6efHpe8W9U-16" value="persistent" style="edgeStyle=orthogonalEdgeStyle;rounded=0;orthogonalLoop=1;jettySize=auto;html=1;exitX=0;exitY=0.5;exitDx=0;exitDy=0;entryX=0;entryY=0.25;entryDx=0;entryDy=0;" edge="1" parent="1" source="Pj8K4zCSjB6efHpe8W9U-5" target="Pj8K4zCSjB6efHpe8W9U-1">
          <mxGeometry x="0.4103" y="-10" relative="1" as="geometry">
            <Array as="points">
              <mxPoint x="270" y="765" />
              <mxPoint x="270" y="475" />
            </Array>
            <mxPoint as="offset" />
          </mxGeometry>
        </mxCell>
        <mxCell id="Pj8K4zCSjB6efHpe8W9U-21" value="&amp;nbsp;persistent&amp;nbsp;" style="edgeStyle=orthogonalEdgeStyle;rounded=0;orthogonalLoop=1;jettySize=auto;html=1;entryX=1;entryY=0.5;entryDx=0;entryDy=0;" edge="1" parent="1" source="Pj8K4zCSjB6efHpe8W9U-5" target="Pj8K4zCSjB6efHpe8W9U-4">
          <mxGeometry x="-0.3214" relative="1" as="geometry">
            <Array as="points">
              <mxPoint x="370" y="825" />
              <mxPoint x="670" y="825" />
              <mxPoint x="670" y="625" />
            </Array>
            <mxPoint as="offset" />
          </mxGeometry>
        </mxCell>
        <mxCell id="Pj8K4zCSjB6efHpe8W9U-5" value="disabled" style="rounded=0;whiteSpace=wrap;html=1;fillColor=#f8cecc;strokeColor=#b85450;" vertex="1" parent="1">
          <mxGeometry x="310" y="745" width="120" height="40" as="geometry" />
        </mxCell>
        <mxCell id="Pj8K4zCSjB6efHpe8W9U-6" value="c&lt;span style=&quot;background-color: transparent; color: light-dark(rgb(0, 0, 0), rgb(255, 255, 255));&quot;&gt;losed&lt;/span&gt;" style="rounded=0;whiteSpace=wrap;html=1;fillColor=#f8cecc;strokeColor=#b85450;" vertex="1" parent="1">
          <mxGeometry x="520" y="745" width="120" height="40" as="geometry" />
        </mxCell>
        <mxCell id="Pj8K4zCSjB6efHpe8W9U-23" style="edgeStyle=orthogonalEdgeStyle;rounded=0;orthogonalLoop=1;jettySize=auto;html=1;" edge="1" parent="1" source="Pj8K4zCSjB6efHpe8W9U-22" target="Pj8K4zCSjB6efHpe8W9U-1">
          <mxGeometry relative="1" as="geometry" />
        </mxCell>
        <mxCell id="Pj8K4zCSjB6efHpe8W9U-22" value="Create&lt;div&gt;request&lt;/div&gt;" style="text;html=1;align=center;verticalAlign=middle;resizable=0;points=[];autosize=1;strokeColor=#82b366;fillColor=#d5e8d4;fontStyle=1;fontSize=14;" vertex="1" parent="1">
          <mxGeometry x="335" y="330" width="70" height="50" as="geometry" />
        </mxCell>
      </root>
    </mxGraphModel>
  </diagram>
</mxfile>
